<?xml version="1.0" encoding="UTF-8" standalone="no"?>
<svg id="svg2" xmlns:rdf="http://www.w3.org/1999/02/22-rdf-syntax-ns#" xmlns="http://www.w3.org/2000/svg" xmlns:osb="http://www.openswatchbook.org/uri/2009/osb" viewBox="0 0 499.99998 349.99998" height="350" width="500" version="1.1" xmlns:cc="http://creativecommons.org/ns#" xmlns:xlink="http://www.w3.org/1999/xlink" xmlns:dc="http://purl.org/dc/elements/1.1/">
 <defs id="defs4">
  <filter id="filter3649" style="color-interpolation-filters:sRGB" height="1.4" width="1.4" y="-.2" x="-.2">
   <feGaussianBlur id="feGaussianBlur3651" stdDeviation="0.4" result="blur"/>
   <feComposite id="feComposite3653" operator="in" in="SourceGraphic" in2="blur" result="composite1"/>
   <feComposite id="feComposite3655" operator="in" in="composite1" in2="composite1" result="fbSourceGraphic"/>
   <feColorMatrix id="feColorMatrix3693" result="fbSourceGraphicAlpha" values="0 0 0 -1 0 0 0 0 -1 0 0 0 0 -1 0 0 0 0 1 0" in="fbSourceGraphic"/>
   <feGaussianBlur id="feGaussianBlur3695" stdDeviation="1.5" result="result14" in="fbSourceGraphic"/>
   <feFlood id="feFlood3697" flood-color="rgb(146,94,26)" result="result12"/>
   <feTurbulence id="feTurbulence3699" baseFrequency="0.001 0.002" seed="25" result="result5" numOctaves="5" type="turbulence"/>
   <feDisplacementMap id="feDisplacementMap3701" scale="100" yChannelSelector="G" in2="result14" result="result8" xChannelSelector="R" in="result5"/>
   <feComposite id="feComposite3703" k4="0" in2="result5" k3="0" k2="0.5" k1="0.5" result="result10" in="result8" operator="arithmetic"/>
   <feSpecularLighting id="feSpecularLighting3705" specularConstant="1" result="result2" specularExponent="15" surfaceScale="-15">
    <feDistantLight id="feDistantLight3707" elevation="90" azimuth="225"/>
   </feSpecularLighting>
   <feGaussianBlur id="feGaussianBlur3709" stdDeviation="0.4" result="result13"/>
   <feDiffuseLighting id="feDiffuseLighting3711" result="result1" surfaceScale="-20" diffuseConstant="0.60000002" in="result13">
    <feDistantLight id="feDistantLight3713" elevation="10" azimuth="225"/>
   </feDiffuseLighting>
   <feComposite id="feComposite3715" k4="0" in2="result1" k3="0.6" k2="1" k1="0" result="result4" in="fbSourceGraphic" operator="arithmetic"/>
   <feComposite id="feComposite3717" operator="in" result="result11" in2="fbSourceGraphic"/>
   <feBlend id="feBlend3719" in="result11" mode="normal" in2="result11" result="fbSourceGraphic"/>
   <feColorMatrix id="feColorMatrix3721" result="fbSourceGraphicAlpha" values="0 0 0 -1 0 0 0 0 -1 0 0 0 0 -1 0 0 0 0 1 0" in="fbSourceGraphic"/>
   <feTurbulence id="feTurbulence3723" numOctaves="5" baseFrequency="0.4"/>
   <feConvolveMatrix id="feConvolveMatrix3725" kernelMatrix="-4 0 0 0 -4 0 -2 0 -2 0 0 0 -10 0 0 0 -2 0 -2 0 -4 0 0 0 -4 " order="5 5" targetX="2" targetY="2"/>
   <feConvolveMatrix id="feConvolveMatrix3727" kernelMatrix="2 0 2 0 -5 0 2 0 2 " order="3 3" targetX="1" targetY="1"/>
   <feColorMatrix id="feColorMatrix3729" type="saturate" result="result1"/>
   <feComposite id="feComposite3731" in2="fbSourceGraphic" k3="0.5" k2="0.5" k1="1.5" result="result2" k4="0" operator="arithmetic"/>
   <feTurbulence id="feTurbulence3733" numOctaves="5" type="fractalNoise" result="result8" baseFrequency="0.1"/>
   <feDisplacementMap id="feDisplacementMap3735" scale="4" yChannelSelector="A" in2="result8" result="result15" xChannelSelector="A" in="result2"/>
   <feBlend id="feBlend3737" result="result4" in2="result1" mode="normal"/>
   <feColorMatrix id="feColorMatrix3739" type="luminanceToAlpha"/>
   <feDiffuseLighting id="feDiffuseLighting3741" surfaceScale="7" result="result3" diffuseConstant="1">
    <feDistantLight id="feDistantLight3743" elevation="37" azimuth="180"/>
   </feDiffuseLighting>
   <feComposite id="feComposite3745" in2="result4" k3="0.5" k2="0" k1="1.5" result="result5" k4="0" operator="arithmetic"/>
   <feBlend id="feBlend3747" result="result6" in2="result3" mode="normal"/>
   <feComposite id="feComposite3749" operator="in" result="fbSourceGraphic" in2="fbSourceGraphic"/>
   <feColorMatrix id="feColorMatrix3751" result="fbSourceGraphicAlpha" values="0 0 0 -1 0 0 0 0 -1 0 0 0 0 -1 0 0 0 0 1 0" in="fbSourceGraphic"/>
   <feColorMatrix id="feColorMatrix3753" type="hueRotate" values="180" result="fbSourceGraphic" in="fbSourceGraphic"/>
   <feColorMatrix id="feColorMatrix3755" values="1 0 0 0 0 0 1 0 0 0 0 0 1 0 0 -0.2125 -0.7154 -0.0721 1 0 " result="result1" in="fbSourceGraphic"/>
   <feColorMatrix id="feColorMatrix3757" type="hueRotate" values="0"/>
   <feColorMatrix id="feColorMatrix3759" values="1 0 0 0 0 0 1 0 0 0 0 0 1 0 0 0 0 0 1 0 " result="result3"/>
   <feComposite id="feComposite3761" operator="atop" result="result6" in2="result3"/>
   <feComposite id="feComposite3763" k4="0" in2="result6" k3="0.5" k2="0.5" k1="0.5" result="result4" in="result6" operator="arithmetic"/>
   <feBlend id="feBlend3765" mode="normal" result="result2" in2="fbSourceGraphic" in="result4"/>
   <feComposite id="feComposite3767" in2="result2" k3="0" k2="1" k1="0" result="result5" k4="0" operator="arithmetic"/>
   <feComposite id="feComposite3769" operator="in" result="fbSourceGraphic" in2="fbSourceGraphic"/>
   <feColorMatrix id="feColorMatrix3771" result="fbSourceGraphicAlpha" values="0 0 0 -1 0 0 0 0 -1 0 0 0 0 -1 0 0 0 0 1 0" in="fbSourceGraphic"/>
   <feColorMatrix id="feColorMatrix3773" values="1 0 0 0 0 1 0 0 0 0 1 0 0 0 0 0 0 0 0 1 " type="matrix" result="r" in="fbSourceGraphic"/>
   <feColorMatrix id="feColorMatrix3775" values="0 1 0 0 0 0 1 0 0 0 0 1 0 0 0 0 0 0 0 1 " type="matrix" result="g" in="fbSourceGraphic"/>
   <feColorMatrix id="feColorMatrix3777" values="0 0 1 0 0 0 0 1 0 0 0 0 1 0 0 0 0 0 0 1 " type="matrix" result="b" in="fbSourceGraphic"/>
   <feBlend id="feBlend3779" result="minrg" mode="darken" in2="g" in="r"/>
   <feBlend id="feBlend3781" result="p" mode="darken" in2="b" in="minrg"/>
   <feBlend id="feBlend3783" result="maxrg" mode="lighten" in2="g" in="r"/>
   <feBlend id="feBlend3785" result="q" mode="lighten" in2="b" in="maxrg"/>
   <feComponentTransfer id="feComponentTransfer3787" result="q2" in="q">
    <feFuncR id="feFuncR3789" slope="0" type="linear"/>
   </feComponentTransfer>
   <feBlend id="feBlend3791" result="pq" mode="lighten" in2="q2" in="p"/>
   <feColorMatrix id="feColorMatrix3793" values="-1 1 0 0 0 -1 1 0 0 0 -1 1 0 0 0 0 0 0 0 1 " type="matrix" result="qminp" in="pq"/>
   <feComposite id="feComposite3795" k4="0" in2="qminp" k3="1" k2="0" k1="0" result="qminpc" in="qminp" operator="arithmetic"/>
   <feBlend id="feBlend3797" mode="screen" in2="fbSourceGraphic" result="result2"/>
   <feComposite id="feComposite3799" operator="in" result="fbSourceGraphic" in2="fbSourceGraphic" in="result2"/>
   <feColorMatrix id="feColorMatrix5554" result="fbSourceGraphicAlpha" values="0 0 0 -1 0 0 0 0 -1 0 0 0 0 -1 0 0 0 0 1 0" in="fbSourceGraphic"/>
   <feGaussianBlur id="feGaussianBlur5556" stdDeviation="2.3" result="result0" in="fbSourceGraphicAlpha"/>
   <feMorphology id="feMorphology5558" radius="6.6" result="result1" in="fbSourceGraphicAlpha"/>
   <feGaussianBlur id="feGaussianBlur5560" stdDeviation="8.9" in="result1"/>
   <feColorMatrix id="feColorMatrix5562" values="1 0 0 0 0 0 1 0 0 0 0 0 1 0 0 0 0 0 0.3 0" result="result91"/>
   <feComposite id="feComposite5564" operator="out" result="result2" in2="result91" in="result0"/>
   <feGaussianBlur id="feGaussianBlur5566" stdDeviation="1.7" result="result4"/>
   <feDiffuseLighting id="feDiffuseLighting5568" result="result92" surfaceScale="10">
    <feDistantLight id="feDistantLight5570" elevation="45" azimuth="225"/>
   </feDiffuseLighting>
   <feBlend id="feBlend5572" result="result93" in2="fbSourceGraphic" mode="multiply"/>
   <feComposite id="feComposite5574" operator="in" result="result3" in2="fbSourceGraphicAlpha"/>
   <feSpecularLighting id="feSpecularLighting5576" in="result4" result="result94" specularExponent="17.89999962" surfaceScale="5">
    <feDistantLight id="feDistantLight5578" elevation="45" azimuth="225"/>
   </feSpecularLighting>
   <feComposite id="feComposite5580" operator="atop" in2="result3"/>
  </filter>
  <filter id="filter12107" style="color-interpolation-filters:sRGB">
   <feGaussianBlur id="feGaussianBlur12109" in="SourceAlpha" stdDeviation="2.3" result="result0"/>
   <feMorphology id="feMorphology12111" in="SourceAlpha" radius="6.6" result="result1"/>
   <feGaussianBlur id="feGaussianBlur12113" stdDeviation="8.9" in="result1"/>
   <feColorMatrix id="feColorMatrix12115" values="1 0 0 0 0 0 1 0 0 0 0 0 1 0 0 0 0 0 0.3 0" result="result91"/>
   <feComposite id="feComposite12117" operator="out" in="result0" in2="result91" result="result2"/>
   <feGaussianBlur id="feGaussianBlur12119" stdDeviation="1.7" result="result4"/>
   <feDiffuseLighting id="feDiffuseLighting12121" surfaceScale="10">
    <feDistantLight id="feDistantLight12123" elevation="45" azimuth="225"/>
   </feDiffuseLighting>
   <feBlend id="feBlend12125" in2="SourceGraphic" mode="multiply"/>
   <feComposite id="feComposite12127" operator="in" in2="SourceAlpha" result="result3"/>
   <feSpecularLighting id="feSpecularLighting12129" in="result4" specularExponent="17.89999962" surfaceScale="5">
    <feDistantLight id="feDistantLight12131" elevation="45" azimuth="225"/>
   </feSpecularLighting>
   <feComposite id="feComposite12133" operator="atop" in2="result3"/>
  </filter>
  <filter id="filter12135" style="color-interpolation-filters:sRGB">
   <feGaussianBlur id="feGaussianBlur12137" in="SourceAlpha" stdDeviation="2.3" result="result0"/>
   <feMorphology id="feMorphology12139" in="SourceAlpha" radius="6.6" result="result1"/>
   <feGaussianBlur id="feGaussianBlur12141" stdDeviation="8.9" in="result1"/>
   <feColorMatrix id="feColorMatrix12143" values="1 0 0 0 0 0 1 0 0 0 0 0 1 0 0 0 0 0 0.3 0" result="result91"/>
   <feComposite id="feComposite12145" operator="out" in="result0" in2="result91" result="result2"/>
   <feGaussianBlur id="feGaussianBlur12147" stdDeviation="1.7" result="result4"/>
   <feDiffuseLighting id="feDiffuseLighting12149" surfaceScale="10">
    <feDistantLight id="feDistantLight12151" elevation="45" azimuth="225"/>
   </feDiffuseLighting>
   <feBlend id="feBlend12153" in2="SourceGraphic" mode="multiply"/>
   <feComposite id="feComposite12155" operator="in" in2="SourceAlpha" result="result3"/>
   <feSpecularLighting id="feSpecularLighting12157" in="result4" specularExponent="17.89999962" surfaceScale="5">
    <feDistantLight id="feDistantLight12159" elevation="45" azimuth="225"/>
   </feSpecularLighting>
   <feComposite id="feComposite12161" operator="atop" in2="result3"/>
  </filter>
  <filter id="filter12474" style="color-interpolation-filters:sRGB" height="1.1691" width="1.028" y="-.084574" x="-.013984">
   <feGaussianBlur id="feGaussianBlur12476" stdDeviation="2.4867582"/>
  </filter>
  <filter id="filter12474-5-9" style="color-interpolation-filters:sRGB" height="1.1691" width="1.028" y="-.084574" x="-.013984">
   <feGaussianBlur id="feGaussianBlur12476-0-4" stdDeviation="2.4867582"/>
  </filter>
  <filter id="filter12474-5-9-6" style="color-interpolation-filters:sRGB" height="1.1691" width="1.028" y="-.084574" x="-.013984">
   <feGaussianBlur id="feGaussianBlur12476-0-4-3" stdDeviation="2.4867582"/>
  </filter>
  <filter id="filter12474-5-9-0" style="color-interpolation-filters:sRGB" height="1.1691" width="1.028" y="-.084574" x="-.013984">
   <feGaussianBlur id="feGaussianBlur12476-0-4-1" stdDeviation="2.4867582"/>
  </filter>
 </defs>
 <metadata id="metadata7">
  <rdf:RDF>
   <cc:Work rdf:about="">
    <dc:format>image/svg+xml</dc:format>
    <dc:type rdf:resource="http://purl.org/dc/dcmitype/StillImage"/>
    <dc:title/>
   </cc:Work>
  </rdf:RDF>
 </metadata>
 <g id="layer2" transform="translate(-27.87 -32.373)">
  <g id="g12817" transform="translate(225.71 -87.143)">
   <g id="g12771">
    <path id="path9074-1" stroke-linejoin="round" d="m69.021 165.8c-29.691 1.1825-58.751 10.304-84.698 24.585-10.34 5.53-20.445 12.025-28.121 21.019-5.901 8.2097-8.2931 18.303-9.5786 28.175-3.461 17.733-11.399 34.21-15.071 51.889-0.54747 7.0612 2.454 13.716 5.4023 19.943 1.6828 3.9354 3.0317 8.5829 1.1875 12.707-2.2292 4.1023-6.971 5.8519-11.332 6.574-5.0236 1.1819-10.1 3.7632-12.704 8.4177-5.365 7.9848-7.6743 17.849-14.441 24.917-7.9626 9.1075-18.996 14.539-28.429 21.875-5.6581 4.2858-11.288 8.6517-16.313 13.681-2.4856 4.5482 0.85561 10.671 5.7534 11.743 3.6754 0.89149 7.4938 0.77178 11.241 1.101 8.5604 0.39565 17.209 0.50317 25.596 2.4526 10.396 1.6246 20.986 1.0262 31.381-0.26325 13.549-0.54444 26.749 3.1418 39.753 6.4502 13.144 3.2048 26.303 6.5099 39.733 8.2973 10.067-0.62374 19.881-4.0648 30.041-3.3281 12.301 2.5702 23.732 8.7204 36.393 9.6504 14.696 0.34018 29.137-4.7976 41.258-12.91 8.9734-4.999 20.325-4.5606 29.376 0.005 9.7912 3.7909 20.534 5.0863 30.94 3.6598 21.439-1.5159 43.083-2.2539 64.108-7.0904 8.5549-2.3802 16.758-6.1175 24.02-11.246 3.9582-4.5967 1.2983-12.712-4.474-14.336-9.8934-3.9026-19.09-9.7746-26.295-17.648-5.005-5.2588-9.9851-10.766-16.437-14.288-5.421-3.1487-11.576-4.7881-17.766-5.5244-1.5371-0.16134-3.2292-0.92843-3.5508-2.5996-0.47807-1.4886 0.24815-2.9437 0.48047-4.3789 0.31756-5.7196-4.2966-10.816-9.6825-12.136-6.8363-2.5417-13.444-5.6912-19.739-9.3722-1.3324-2.5769-0.46634-5.5681 0.12831-8.2227 1.8367-5.8746 6.7632-9.8969 10.676-14.375 7.2462-8.4623 12.068-19.046 13.425-30.118 0.0125-17.198-1.8514-34.717-8.4619-50.736-2.1188-5.5749-5.2777-10.805-9.6658-14.889-8.4928-8.31-19.521-13.183-30.117-18.191-18.82-8.8615-37.538-18.361-57.713-23.798-5.3187-1.339-10.829-1.7709-16.301-1.6918z" stroke="#300" stroke-linecap="round" stroke-width="7.9" fill="none"/>
    <g>
     <path id="path9074" d="m64.921 165.03c-35.643 2.6713-70.676 15.134-99.419 36.491-8.6612 6.5928-15.411 16.109-17.409 26.931-2.5945 12.163-4.4073 24.59-8.9526 36.235-3.2068 9.2179-6.8943 18.444-7.8263 28.24-0.60122 5.5391 2.0003 10.69 4.0853 15.646 1.3924 3.3435 2.9175 6.7847 3.0749 10.45 0.0058 3.6278-2.1771 7.2658-5.6506 8.5436-4.9102 2.4077-10.83 2.6739-15.093 6.3764-4.2477 3.1834-6.6427 8.1055-8.5328 12.929-3.5821 8.073-8.1373 16.07-15.245 21.551-10.005 8.3396-21.631 14.496-31.463 23.061-2.85 2.3522-6.043 4.5837-7.8417 7.8932-1.5505 5.2155 3.223 11.05 8.6338 10.648 13.915 1.8218 27.989 1.958 41.906 3.7565 14.529 0.76073 29.272-1.2876 43.622 1.845 19.286 3.5152 37.91 10.492 57.546 12.062 9.9789 0.38673 19.409-4.1493 29.378-3.8189 7.3675 0.38852 14.09 3.7011 20.98 5.9981 7.9039 2.8464 16.253 5.3119 24.748 4.4669 11.577-0.91908 22.467-5.6332 32.379-11.458 5.9579-3.2925 12.871-5.838 19.76-4.5208 10.317 1.891 19.837 7.3348 30.471 7.6066 19.27-0.16217 38.447-2.3035 57.583-4.3795 13.484-1.9029 27.102-5.2316 38.774-12.5 2.864-1.8623 5.5631-5.0552 4.9257-8.6985-0.64412-4.4499-4.5651-7.7564-8.7536-8.8445-10.14-4.5512-19.03-11.45-26.996-19.122-7.4454-6.7938-15.599-13.187-25.226-16.539-2.34-0.88251-4.8427-1.5508-6.9145-2.9753-3.0352-3.3122-2.6947-8.5363-6.1406-11.579-4.7032-5.174-11.643-7.1991-17.321-11.013-2.1493-1.3172-4.2211-2.7568-6.2425-4.2621-2.3664-4.8719-0.50315-10.821 3.0935-14.569 6.6434-6.9324 13.122-14.508 16.185-23.772 3.8888-11.487 3.5948-23.876 2.2429-35.778-1.3951-13.305-4.882-26.707-12.378-37.944-4.3213-6.148-10.394-10.851-16.785-14.693-6.6998-3.9813-13.895-7.0207-20.893-10.423-13.743-6.4439-27.575-12.738-41.755-18.164-9.6161-3.4657-19.743-6.222-30.049-5.8391-0.83335 0.0549-1.6667 0.10971-2.5 0.16457z" fill-rule="evenodd" fill="#808000"/>
     <path id="path12301" opacity="0.46" d="m175.47 350.91c-5.9962 1.1463-11.076 4.7778-16.047 8.1085-7.6812 5.5533-14.548 12.429-23.336 16.288-11.113 5.2493-23.162 8.0049-35.027 10.967-8.5119 1.9917-17.347 2.6263-26.042 1.6294-10.387-1.2156-20.71-2.9263-31.083-4.2526-9.9419-1.3066-19.968-2.1332-30.001-1.9048-12.733-0.23823-25.202-4.2317-36.224-10.496-6.6122-3.3722-14.068-6.139-21.602-4.9285-6.2536 0.94715-12.547 3.3912-18.928 1.9929-6.4008-1.4938-11.612-6.1288-18.141-7.2302-4.9676 0.93053-8.3526 4.9951-11.947 8.1836-9.3446 8.513-21.315 13.09-32.151 19.289-3.3925 2.0076-6.8135 4.0628-9.9104 6.4808-2.387 3.6092 0.008 9.0228 4.1123 10.064 7.8231 3.9038 16.505 6.8161 25.358 6.0927 25.088-0.62115 50.381-1.8057 75.277 2.1433 14.49 2.3085 28.311 8.0116 43.012 9.1105 10.57 0.29531 21.309-1.9011 31.74 0.63733 10.142 2.6659 19.705 7.8622 30.344 8.3709 12.267 0.58484 24.269-3.9765 34.33-10.741 5.5201-3.7824 11.279-7.9577 18.147-8.6295 6.8714-0.83608 13.437 2.0471 19.502 4.9139 6.6351 3.055 13.643 5.6437 21.004 6.0468 14.554 1.6007 29.133-0.92454 43.368-3.7783 8.6992-1.6161 17.584-1.4519 26.39-1.6304 7.9232-0.75676 15.035-4.7782 21.514-9.1444 1.1932-0.73675 2.3864-1.4735 3.5795-2.2103 0.7398-2.8571-2.2989-5.531-5.0547-5.0879-10.464-0.84866-20.136-7.1236-25.708-15.939-7.8396-9.7513-16.573-19.218-27.7-25.24-6.9011-3.5477-14.479-5.448-21.873-7.67-1.9957-0.53653-3.9779-1.2827-6.0169-1.562-0.29514 0.0422-0.59029 0.0843-0.88544 0.12649z" filter="url(#filter12474)" fill="#450"/>
     <path id="path12301-4-0-3" opacity="0.46" d="m-138.59 240.68c-5.7242 0.37516-11.382 1.3428-17.049 2.1914 20.67-2.1417 43.267-2.0435 61.396 9.4785 0.09651 2.3121-7.9593 4.6885-2.7168 5.5371 29.14 0.99777 56.911 10.881 83.927 21.009 37.059 12.385 76.925 16.524 115.73 12.007 17.819-2.3981 34.582-9.6979 49.655-19.294 3.5456-2.8145 6.7768-0.14882 9.2949 2.5059 4.0209 1.9711 5.0084-3.902 4.8262-6.6992-0.19889-3.7464-1.9488-7.3848-4.7656-9.8652-5.6439 0.53236-11.286 5.7697-16.86 2.0551-16.903-4.7434-34.509-6.1521-51.988-6.7758-18.742 12.945-42.856 14.82-64.761 11.023-46.76-1.7122-92.629-11.721-138.36-20.814-9.3517-1.5893-18.836-2.562-28.331-2.3598z" transform="matrix(.16077 -.050236 .019819 .40752 98.138 183.25)" filter="url(#filter12474-5-9-6)" fill="#450"/>
     <path id="path12585" d="m-118.5 393.39c-0.84716 0.35964-2.2987 0.30133-2.4863 1.4316 3.924 4.0782 9.6694 5.2383 14.778 7.1419 9.5039 3.0456 19.607 2.8336 29.471 3.0598 13.997 0.00056 28.099-1.5568 41.453-5.898 2.4132-0.76601 5.0802-1.0048 7.4558 0.0267 3.8029 1.3828 6.886 4.4268 10.993 5.0326 5.2605 1.1147 10.864 1.0171 15.768 3.4808 6.5447 2.5076 13.429 5.0119 20.559 4.3351 9.5044-0.2184 19.247-1.1975 28.511 1.5249 11.036 2.6038 21.77 7.2118 33.265 7.3085 11.605-0.49397 22.416-5.1493 33.229-8.9348 8.8002-3.1974 17.833-6.7101 27.35-6.4847 10.791 0.92566 20.71 6.6373 31.667 6.3709 12.974 0.0989 25.965-0.40527 38.874-1.7386 8.919-1.0306 17.963-2.4189 26.208-6.1485 1.4968-0.64931 2.9686-1.3548 4.4247-2.0906 0.91005 0.67024 2.0081-1.3298 0.79102-1.5606-7.2346 2.5313-14.655 4.7352-22.325 5.3876-15.993 1.8942-32.129 0.6088-48.111-0.73013-12.123-1.1032-24.22-2.793-36.403-3.009-11.168 1.2636-21.284 6.5217-31.952 9.6739-11.016 3.5899-22.801 6.1095-34.39 4.1463-14.182-2.3286-27.606-8.5583-42.104-9.0564-12.175-0.61296-24.522-1.2592-36.232-4.9434-8.0287-2.1899-15.883-5.2599-24.185-6.2658-6.7438-0.209-13.253 1.9201-19.912 2.6249-7.1792 0.83311-14.415 0.96255-21.628 1.3188-8.2745 0.29039-16.56 0.44623-24.838 0.3302-3.6116-0.29073-6.8985-1.9454-10.13-3.4304-3.2219-0.75041-6.4942-1.4629-9.4899-2.9117-0.20422-0.0278-0.40588-0.0206-0.60938 0.008z"/>
     <path id="path12585-5" d="m-77.304 370.93c-3.6703 1.6012-6.4723 4.5821-9.6174 6.975-1.9541 1.4743-3.9975 3.0587-6.4005 3.6633-6.434 0.75785-12.517-1.9944-18.487-3.9532-0.76368-0.47598-2.3127-0.68109-2.3959 0.56299-0.17446 1.5286 1.371 2.5358 2.7057 2.7255 7.2317 3.3426 15.107 5.4668 23.103 5.5674 3.3786-1.0048 6.7427-2.0898 10.207-2.7676 8.1659 4.1752 18.041 3.7096 26.428 0.43555 6.1535-2.0105 12.071-4.6786 17.818-7.6445 4.2103-0.70389 8.7158 0.79962 11.658 3.8926 0.92882 4.1706 4.6854 6.9567 8.4531 8.4746 7.459 4.5908 16.465 5.7496 25.071 5.3924 10.838 0.55954 21.28 3.7596 31.911 5.6564 2.3024-0.6623 4.3612-2.362 6.8769-2.0913 3.5946-0.22772 7.2622 1.862 10.762 0.35809 4.8151-2.2558 8.2832-6.8652 13.556-8.2483 4.5949-1.462 9.698-0.81035 13.957 1.3646 3.6775 1.1966 7.4156-0.45415 10.764-1.8832 3.9034-1.4906 7.8536-3.1163 12.067-3.416 5.9931 1.623 10.791 6.4098 17.129 6.965 12.189 2.4439 24.695 0.86269 36.859-0.91052 7.7398-1.363 15.271-3.653 22.79-5.8982 0.78794-0.82533-0.78962-2.1686-1.4922-1.2812-13.323 3.0013-27.182 5.2052-40.799 2.9375-7.4857-1.2784-15.088-1.561-22.629-2.351-5.1277-0.65134-10.109-2.9292-15.36-2.1471-3.5096 0.59895-6.8251 2.0086-10.308 2.7436-2.9652 0.73928-6.07 0.81168-9.0595 0.17556-6.5068-0.92833-13.434-1.6488-19.689 0.8601-2.5358 1.1757-4.2476 3.458-6.1515 5.3967-1.7442 1.5311-4.3032 2.105-6.4653 1.1568-3.8156-0.92616-7.6983-2.8748-11.7-1.8211-2.2364 0.92994-3.4591 3.8642-6.1543 3.7168-4.0094-0.40031-7.5225-2.5595-11.249-3.9087-6.345-2.6776-13.027-5.6568-20.083-4.9484-4.1235 0.4202-8.5649 1.7204-12.506-0.21109-4.9604-2.6902-8.1554-7.8852-13.511-9.9644-4.8228-2.0176-10.146-3.0361-15.358-2.2535-3.1768 0.36135-6.1602 1.5506-9.0701 2.8058-5.9815 2.2568-12.32 4.7257-18.827 3.7704-4.7014-0.98604-8.1216-4.7019-10.981-8.3063-1.0332-0.94243-2.3745-1.7279-3.8225-1.5913z"/>
    </g>
    <g stroke-linejoin="round" stroke="#300" stroke-linecap="round" fill="#710000">
     <ellipse id="path12656-5" opacity="0.391" rx="4.4941" ry="3.7798" cy="302.01" cx="-19.286" stroke-width=".48321"/>
     <ellipse id="path12656-50" opacity="0.391" rx="7.8571" ry="7.5" cy="342.36" cx="165.71" stroke-width="0.9"/>
     <ellipse id="path12656-4" opacity="0.391" rx="3.0882" ry="4.5168" cy="348.43" cx="149.29" stroke-width=".43787"/>
     <ellipse id="path12656-4-7" opacity="0.391" rx="3.0882" ry="4.5168" cy="280.22" cx="142.14" stroke-width=".43787"/>
    </g>
    <path id="path12301-4-0-5" opacity="0.46" d="m55.465 248.8c-73.11 4.8562-146.23 9.5359-219.38 13.723-9.212 0.68815-18.54 0.82011-27.681 1.8479-28.582 11.082-59.691 10.454-89.68 14.224-3.934 1.5185-2.2956 8.5815 1.9356 8.1523 28.653 19.627 63.679 25.361 97.162 31.33 71.212 13.195 145.05 13.555 215.99-1.6356 9.9474-2.1919 20.167-4.4112 29.254-9.053 11.192-9.4246 9.3438-27.932 22.737-35.503 13.239-6.5826 28.439-3.9114 42.656-4.2812 3.3346-3.4435-3.3015-5.7778-5.5359-7.524-20.237-11.974-44.739-11.424-67.45-11.281z" transform="matrix(-.16077 -.050236 -.019819 .40752 39.005 233.25)" filter="url(#filter12474-5-9-0)" fill="#450"/>
    <path id="path9921-9-3-9" stroke-linejoin="round" d="m8.3652 328.1c-0.53386 0.0881 1.6547-0.0418 2.2324 0.3418 3.0413 0.98631 5.0485 3.6438 7.3398 5.707 0.9127 1.272 0.72559 0.86462-0.0297-0.2037-1.3794-1.5774-3.0861-2.8378-4.6779-4.1865-1.4096-1.0032-3.1008-1.758-4.8647-1.6586zm10.32 7.0977c0.7032 1.5868 1.1069 3.327 1.0078 5.0684 0.15638-1.7426-0.2064-3.515-1.0078-5.0684zm4.084 18.803c-0.42838-0.34734-0.72695-0.58941 0 0zm1.1641 0.99414c2.5794 1.9234 5.5679 3.1713 8.5156 4.4082-3.1379-1.374-6.3054-2.7829-9.0488-4.8672l0.5332 0.45898zm10.736 5.6504-0.09766-0.15429 0.09766 0.15429zm-0.01563 0.15235-0.08203-0.0352 0.08203 0.0352zm0.14844 0.42383-0.01172-0.16407 0.01172 0.16407zm-0.57422 0.24414c-0.32254 0.26251 0.27251-0.0604 0 0z" stroke="#000" stroke-linecap="round" stroke-width="0.965"/>
   </g>
   <g id="g12751">
    <g id="g3342" fill="none" transform="translate(-302.86 -95.714)">
     <path id="path3336" d="m373.13 249.9c-23.228 0.30209-45.934 7.3334-66.545 17.746-11.565 6.1537-23.484 11.632-34.876 18.11-5.1752 3.0641-10.401 6.1863-14.837 10.285-7.2711 6.8738-11.1 16.592-12.863 26.271-2.8439 15.889-1.4695 32.114 0.12763 48.058 1.3581 14.174 3.0516 28.47 1.576 42.705-0.44021 3.971-1.1212 7.9799-2.9547 11.575-2.5688 5.4681-6.5508 10.075-9.8546 15.082-1.7868 3.064-2.4657 7.2286-0.25157 10.265 2.6278 4.042 7.0512 6.3043 10.582 9.4346 13.745 10.853 27.472 22.153 43.545 29.433 10.645 4.9524 21.642 9.8716 33.464 10.986 6.3046 0.27396 12.109-2.8804 17.075-6.4583 4.3271-3.0446 9.3347-5.6784 14.775-5.4786 5.0679 0.13938 9.6517 2.7522 13.447 5.933 3.5972 2.9261 7.2001 6.2149 11.848 7.3021 6.2322 1.7124 12.692 0.35 19.019 0.16919 8.5331-0.50198 17.089-0.61507 25.629-0.23234 9.2319 0.2054 18.839-0.14368 27.334-4.1657 11.477-5.2195 20.75-14.002 29.881-22.48 8.5148-8.0113 16.678-16.65 22.533-26.837 2.3961-6.4228-1.2137-14.215-7.4793-16.843-7.0318-3.8628-15.374-5.153-21.735-10.253-2.5277-2.0923-4.1752-5.2274-4.166-8.5382-0.25237-4.6719 1.8909-9.1061 4.7188-12.697 7.7235-12.309 16.58-24.149 21.537-37.945 6.3921-21.396 0.64251-46.146-15.103-62.102-10.561-9.8149-23.724-16.021-36.153-23.051-16.497-9.1039-32.875-18.863-50.98-24.472-6.3013-1.5424-12.826-1.8889-19.291-1.8027z"/>
     <path id="path3339" d="m229.92 448.79c-15.501 0.84333-29.611 8.2093-42.736 15.92-17.492 10.32-35.428 19.856-53.344 29.412-4.2351 6.1139 1.3761 15.754 8.7578 15.217 19.194 3.6992 38.863 7.6923 58.459 4.873 13.691-2.7798 26.26-10.288 40.439-10.75 32.319 4.1589 61.644 20.557 94.057 24.268 30.916 3.2534 61.82-1.8087 92.441-5.5901 29.792-4.0512 59.879-5.7694 89.937-5.5904 16.906-0.82956 34.345-3.8874 48.796-13.202 3.771-2.5692 6.9528-7.6952 4.7803-12.239-2.532-4.7976-8.3378-6.2034-13.329-6.5941-7.7294-1.4502-14.312-7.0592-17.529-14.159-3.6272-6.1137-8.2156-12.585-15.443-14.564-10.35-3.4814-21.395-1.308-31.891 0.23136-20.901 3.6127-40.179 12.886-60.364 18.984-11.704 2.5769-23.68-0.7665-34.518-5.142-14.797-5.2787-30.402-9.1498-46.221-8.4577-26.991-0.32345-54.216 0.16645-80.848-4.9334-11.486-2.0258-22.758-5.1206-34.217-7.2509-2.392-0.33314-4.8114-0.48067-7.2262-0.43304z"/>
    </g>
    <path id="path9921-9" stroke-linejoin="round" d="m107.54 208.62c-9.7096 1.5808-18.078 7.0918-26.384 12.009-1.2854 0.75747-2.5708 1.5149-3.8562 2.2724l8.2539-4.3926c-2.3138 1.3939-4.6276 2.7878-6.9414 4.1816 8.3296-4.5825 16.664-9.8525 26.248-11.25 7.1485-0.81563 14.103 2.888 18.823 8.0527 2.0705 2.2214 4.0154 5.1189 7.2665 5.5736 0.5841 0.24343 2.2259 0.73911 1.8566-0.43549-2.3313-4.997-6.9002-8.3884-11.162-11.651-4.1422-2.7605-9.0671-4.6148-14.104-4.3601z" stroke="#000" stroke-linecap="round" stroke-width="0.965"/>
    <g stroke-linejoin="round" stroke="#000" stroke-linecap="round" stroke-width="1.2" fill="#fff">
     <path id="rect10374" d="m65.938 346.29c-2.2852 0.0263-4.673 1.563-4.959 3.9648-0.58209 3.0456 0.19703 6.1565-0.28848 9.2157-0.12695 2.2917-0.57606 5.0822 1.2043 6.8746 2.1445 1.8681 5.2717 1.6278 7.8871 1.1942 2.5091-0.62907 4.3672-3.0478 4.3175-5.6375 0.39511-3.3892 0.24455-6.815 0.24478-10.217-0.2186-2.5776-2.0991-5.24-4.8654-5.3508-1.1763-0.1196-2.361-0.0487-3.5408-0.0437z"/>
     <path id="rect10376" d="m80.186 346.88c-2.6315-0.005-5.5861 1.8915-5.5432 4.7602-0.21065 2.5605-0.15314 5.164 0.14507 7.7069 0.73293 2.587 3.58 4.033 6.1463 3.7511 2.6182 0.21055 5.8895-0.59008 6.8339-3.3608 0.82011-2.3504 0.19498-4.8675 0.37336-7.2909-0.008-2.3057-1.4214-4.671-3.7609-5.2319-1.3534-0.42491-2.7951-0.33543-4.1945-0.33463z"/>
     <path id="rect10378" d="m97.233 342.31c-3.2611 0.11548-7.0533 1.6513-8.0234 5.0606-0.70842 2.7836-1.2171 5.9764 0.34766 8.5762 2.2083 1.8218 5.3162 0.79776 7.5771-0.37543 2.7748-1.5551 4.0489-4.8265 4.0965-7.8809 0.33586-1.8683 0.0457-4.4192-2.0174-5.1518-0.63596-0.21599-1.313-0.27205-1.9805-0.22852z"/>
     <path id="rect10374-9" d="m35.469 335.62c-2.6793 0.36065-4.2213 3.4914-3.367 5.9417 0.4457 3.7729 0.24238 7.6606 1.2732 11.34 1.6904 3.9396 7.6143 5.4904 10.721 2.3164 1.9906-2.5103 1.3978-5.9292 1.1788-8.8856-0.35683-2.3852-0.2887-4.955-1.4288-7.1339-1.4657-2.519-4.45-3.8813-7.3158-3.6058-0.3539-0.0203-0.70747 0.019-1.0612 0.0276z"/>
     <path id="rect10374-5" d="m49.588 343.83c-2.5058 0.56799-3.7266 3.5297-3.0403 5.8585 0.20704 3.05-0.54736 6.2326 0.45949 9.1837 1.5081 2.6351 4.8864 2.91 7.6101 2.954 2.3716 0.04 5.0664-1.4991 5.1754-4.0926 0.37096-2.8087 0.1249-5.6618 0.0031-8.4763-0.33101-2.4498-2.1571-4.7133-4.6793-5.0911-1.804-0.4649-3.6824-0.44585-5.5286-0.33607z"/>
    </g>
    <g stroke-linejoin="round" stroke-linecap="round" stroke-width="0.965">
     <path id="path9921-9-7" d="m38.536 206.08c-6.094 1.1747-11.014 5.2068-16.527 7.7754-0.69659 1.3005 1.0216 2.5422 2.2255 2.1677 4.4094 0.34792 8.2031-2.4159 11.485-5.0042 2.9039-2.0564 6.7692-1.8669 9.9847-0.71067 4.4546 1.2226 8.7683 2.9432 13.297 3.8967-1.0758-0.3462-2.15-0.69715-3.2227-1.0527 1.8685 0.42578 3.737 0.85156 5.6055 1.2773-7.5563-2.3866-14.883-5.4213-22.232-8.3672-0.20508 0.006-0.41016 0.0117-0.61523 0.0176z" stroke="#000"/>
     <path id="path12073" d="m94.887 238.8c-7.8372 0.43004-14.778 5.2526-19.558 11.233-3.6695 4.6442-7.0172 10.112-7.0256 16.218 0.15619 4.0714 3.0214 7.3795 6.1166 9.7323 7.7749 6.3143 17.147 10.841 27.093 12.307 6.4522 0.39839 12.335-4.7067 13.887-10.8 2.1369-7.2315 2.0394-15.075-0.27412-22.252-1.1833-4.0232-2.8912-8.0396-5.993-10.97-3.1875-3.2628-7.5825-5.4665-12.2-5.4622-0.68141-0.0328-1.3653-0.0395-2.0469-0.005z" stroke="#300" fill="#fff"/>
     <path id="path12073-9" d="m52.535 237.65c-5.6068 0.51498-10.087 4.4328-13.703 8.4381-4.8494 5.268-9.1283 11.674-9.7181 18.996-0.34004 8.0088 4.3413 15.543 10.662 20.158 7.1716 5.1782 17.322 6.6806 25.292 2.4495 5.8977-3.3355 9.0936-10.184 9.1925-16.804 0.41963-8.466-2.5552-16.791-6.9808-23.902-2.9-4.3904-7.1193-8.5047-12.526-9.3053-0.73531-0.1008-1.4801-0.0786-2.2187-0.0299z" stroke="#300" fill="#fff"/>
    </g>
    <g stroke-linejoin="round" stroke-linecap="round" stroke-width="0.965">
     <ellipse id="path12090" rx="8.5714" ry="6.7857" stroke="#300" filter="url(#filter12135)" cy="267.01" cx="52.857"/>
     <ellipse id="path12090-8" rx="8.5714" ry="6.7857" stroke="#300" filter="url(#filter12107)" cy="265.93" cx="95"/>
     <path id="path9921-9-3" d="m163.95 359.91c-4.6558 0.86851-8.6655 3.6229-13.223 4.8224-4.9113 1.6914-9.9412 3.1778-14.509 5.703-1.1477-0.13014-0.88595 2.1201 0.21485 1.6543 2.9271-3.4963 7.6964-4.1125 11.662-5.8402 4.8907-1.7902 9.7814-3.5805 14.672-5.3708 4.9119-0.0103 8.9845 3.3762 11.945 6.9858 3.4679 3.4477 7.195 6.9506 11.938 8.5103 3.7892 0.0349 6.8097-3.9247 6.1856-7.5742 0.10793-1.1883 0.22434-2.4285 0.85156-3.4746 5.7428-0.35742 10.834 2.7511 15.738 5.293 4.6964 2.4285 9.9828 4.0102 13.873 7.752 1.8519 0.62357 3.6412-2.4102 1.8262-3.498-8.6754-4.0567-16.997-8.8246-25.678-12.869-2.7839-0.81513-5.7354-1.2182-8.6262-1.0676-2.2663 0.44801-3.8272 3.102-2.8058 5.2532 0.51555 2.0925 1.1483 4.4478 0.0785 6.4785-2.0597 1.7616-5.1585 0.66484-6.832-1.1074-4.7493-3.7716-8.3891-9.06-14.092-11.531-1.0497-0.2606-2.1542-0.33465-3.2188-0.11914z" stroke="#000"/>
    </g>
    <g stroke-linejoin="round" stroke-linecap="round">
     <path id="path9921-9-5" d="m137.95 272.47c-4.713 0.32579-8.3315 3.9741-10.738 7.7483-1.6645 2.7054-3.0842 5.5583-4.4434 8.4275-4.9136 3.5027-11.221 3.7354-17.032 3.522-3.7454 0.0102-7.5077-0.002-11.223 0.5327-3.8189-0.91099-7.5295-2.3188-11.447-2.7773 3.8875 0.72683 7.5873 2.1608 11.312 3.4473 2.9163-0.3645 5.8335-0.9076 8.784-0.66576 5.9928-0.0534 12.156 0.24636 17.917-1.7053 3.0629-1.8779 3.1916-5.859 5.0614-8.6216 2.3741-4.1983 5.7299-8.4852 10.667-9.6225 0.97763-0.23479 1.9781-0.24073 2.9766-0.19336-0.6038-0.11911-1.2216-0.10939-1.834-0.0918z" stroke="#000" stroke-width="0.965" fill="#668000"/>
     <path id="path9921-9-5-8" d="m17.85 270.49c0.7408 2.0475 1.8808 4.3541 4.2011 4.8925 3.1448 1.2127 5.5638 4.473 5.1351 7.9228 0.16505 2.5425 0.04921 5.6679 2.2882 7.3777 3.5087 1.9215 7.7782 0.80471 11.373 2.4885 6.8376 2.0854 13.259 6.0593 20.591 6.1231 3.4183-0.17993 6.7756-1.588 9.2383-3.9766-2.052 0.52584-3.8106 2.0528-6.0161 1.9804-6.014 0.93465-11.707-1.7699-17.405-3.2174-5.2647-1.4781-10.594-2.7748-16.02-3.5013-3.1079-1.4247-4.1687-5.1742-3.9257-8.3404-0.17986-3.3273-2.6057-6.3571-5.8198-7.2434-2.4425-1.2064-3.3625-3.9726-4.317-6.3069 0.22591 0.60026 0.45182 1.2005 0.67773 1.8008z" stroke="#000" stroke-width="0.965"/>
     <ellipse id="path12656" opacity="0.391" rx="7.8571" ry="7.5" stroke="#300" cy="292.01" cx="-4.2857" stroke-width="0.9" fill="#710000"/>
    </g>
   </g>
   <path id="path6949" d="m30.754 329.36c-1.438 0.32549-1.578 2.7446-0.10938 3.1289 9.0165 6.6938 19.333 12.163 30.596 13.641 10.26 1.4328 20.784 0.64993 30.816-1.8584 5.8996-1.58 11.408-5.2797 14.374-10.714 0.19581-1.1659-1.6265-1.6308-2.2363-0.75-4.1027 2.5716-6.4358 7.4469-11.137 9.1445-6.9068 2.5851-14.398 2.019-21.618 2.6664-9.3142 0.56225-19.081-0.82569-27.109-5.8489-4.5129-2.7225-8.6024-6.0655-12.734-9.3195-0.26397-0.11556-0.55953-0.14545-0.8418-0.0898z" transform="matrix(1.1746 0 0 1.2188 -10.306 -74.907)" filter="url(#filter3649)" stroke="#000" stroke-width="3.707"/>
   <path id="path12301-4-0" opacity="0.46" d="m92.527 252.65c-5.4722 1.6373-9.3962 6.3854-14.798 8.3513-7.8268 4.0101-16.772 5.5676-25.474 4.3215-60.303-1.1573-120.44-14.37-180.8-7.1592-12.661 1.8686-25.098 4.9422-37.521 7.9648-2.5976 3.9487 5.3968 7.5886 6.7812 3.0996 4.1948-3.8454 11.863-1.2991 13.285 4.1035 8.3506 8.9448 21.558 6.9034 32.551 6.8525 29.732 2.2201 59.543 3.0387 89.32 4.2642 42.956 3.0264 85.891 12.24 129.07 7.7714 14.26-3.9572 29.067-8.0151 41.25-16.687 3.0045-2.5907 6.4752-7.4967 10.835-4.9042 4.3469-0.58728 7.5267 3.4972 3.2852 6.4492-3.4334 2.3461-2.3372 8.9053 0.49795 2.7851 1.0024-4.2166 5.3647-6.306 5.92-10.644 1.023-6.2417-3.686-12.132-9.3144-14.264-0.92717 2.4074-0.15918 8.2725-4.2344 7.1426-19.232-7.4625-40.159-9.64-60.645-9.4473z" transform="matrix(-.16077 -.050236 -.019819 .40752 47.583 182.52)" filter="url(#filter12474-5-9)" fill="#450"/>
  </g>
 </g>
</svg>
